HIERARCHY
ROOT Hips
{
	OFFSET 0.00000 0.00000 0.00000
	CHANNELS 6 Xposition Yposition Zposition Zrotation Yrotation Xrotation 
	JOINT LHipJoint
	{
		OFFSET 0 0 0
		CHANNELS 3 Zrotation Yrotation Xrotation
		JOINT LeftUpLeg
		{
			OFFSET 1.58895 -1.83665 0.71753
			CHANNELS 3 Zrotation Yrotation Xrotation
			JOINT LeftLeg
			{
				OFFSET 2.50528 -6.88321 0.00000
				CHANNELS 3 Zrotation Yrotation Xrotation
				JOINT LeftFoot
				{
					OFFSET 2.63244 -7.23257 0.00000
					CHANNELS 3 Zrotation Yrotation Xrotation
					JOINT LeftToeBase
					{
						OFFSET 0.23691 -0.65090 1.72750
						CHANNELS 3 Zrotation Yrotation Xrotation
						End Site
						{
							OFFSET 0.00000 -0.00000 0.92561
						}
					}
				}
			}
		}
	}
	JOINT RHipJoint
	{
		OFFSET 0 0 0
		CHANNELS 3 Zrotation Yrotation Xrotation
		JOINT RightUpLeg
		{
			OFFSET -1.51435 -1.83665 0.71753
			CHANNELS 3 Zrotation Yrotation Xrotation
			JOINT RightLeg
			{
				OFFSET -2.54551 -6.99375 0.00000
				CHANNELS 3 Zrotation Yrotation Xrotation
				JOINT RightFoot
				{
					OFFSET -2.66027 -7.30903 0.00000
					CHANNELS 3 Zrotation Yrotation Xrotation
					JOINT RightToeBase
					{
						OFFSET -0.22981 -0.63138 2.03959
						CHANNELS 3 Zrotation Yrotation Xrotation
						End Site
						{
							OFFSET -0.00000 -0.00000 1.07060
						}
					}
				}
			}
		}
	}
	JOINT LowerBack
	{
		OFFSET 0 0 0
		CHANNELS 3 Zrotation Yrotation Xrotation
		JOINT Spine
		{
			OFFSET -0.02651 1.86275 -0.11152
			CHANNELS 3 Zrotation Yrotation Xrotation
			JOINT Spine1
			{
				OFFSET 0.01019 1.86224 0.04087
				CHANNELS 3 Zrotation Yrotation Xrotation
				JOINT Neck
				{
					OFFSET 0 0 0
					CHANNELS 3 Zrotation Yrotation Xrotation
					JOINT Neck1
					{
						OFFSET -0.01926 1.80512 0.08867
						CHANNELS 3 Zrotation Yrotation Xrotation
						JOINT Head
						{
							OFFSET 0.05516 1.76451 -0.38475
							CHANNELS 3 Zrotation Yrotation Xrotation
							End Site
							{
								OFFSET 0.01592 1.82587 -0.14001
							}
						}
					}
				}
				JOINT LeftShoulder
				{
					OFFSET 0 0 0
					CHANNELS 3 Zrotation Yrotation Xrotation
					JOINT LeftArm
					{
						OFFSET 3.47116 1.51376 0.14491
						CHANNELS 3 Zrotation Yrotation Xrotation
						JOINT LeftForeArm
						{
							OFFSET 4.78095 -0.00000 0.00000
							CHANNELS 3 Zrotation Yrotation Xrotation
							JOINT LeftHand
							{
								OFFSET 3.58615 -0.00000 -0.00000
								CHANNELS 3 Zrotation Yrotation Xrotation
								JOINT LeftFingerBase
								{
									OFFSET 0 0 0
									CHANNELS 3 Zrotation Yrotation Xrotation
									JOINT LeftHandIndex1
									{
										OFFSET 0.65981 -0.00000 0.00000
										CHANNELS 3 Zrotation Yrotation Xrotation
										End Site
										{
											OFFSET 0.53196 -0.00000 0.00000
										}
									}
								}
								JOINT LThumb
								{
									OFFSET 0 0 0
									CHANNELS 3 Zrotation Yrotation Xrotation
									End Site
									{
										OFFSET 0.54008 -0.00000 0.54008
									}
								}
							}
						}
					}
				}
				JOINT RightShoulder
				{
					OFFSET 0 0 0
					CHANNELS 3 Zrotation Yrotation Xrotation
					JOINT RightArm
					{
						OFFSET -3.31725 1.61216 0.35156
						CHANNELS 3 Zrotation Yrotation Xrotation
						JOINT RightForeArm
						{
							OFFSET -4.48913 -0.00000 0.00000
							CHANNELS 3 Zrotation Yrotation Xrotation
							JOINT RightHand
							{
								OFFSET -3.70510 -0.00000 0.00000
								CHANNELS 3 Zrotation Yrotation Xrotation
								JOINT RightFingerBase
								{
									OFFSET 0 0 0
									CHANNELS 3 Zrotation Yrotation Xrotation
									JOINT RightHandIndex1
									{
										OFFSET -0.44914 -0.00000 0.00000
										CHANNELS 3 Zrotation Yrotation Xrotation
										End Site
										{
											OFFSET -0.36211 -0.00000 0.00000
										}
									}
								}
								JOINT RThumb
								{
									OFFSET 0 0 0
									CHANNELS 3 Zrotation Yrotation Xrotation
									End Site
									{
										OFFSET -0.36763 -0.00000 0.36763
									}
								}
							}
						}
					}
				}
			}
		}
	}
}
MOTION
Frames: 14
Frame Time: .0083333
-1.5135 18.0458 5.9736 -6.4531 19.4472 -1.8647 0.0000 0.0000 0.0000 -8.0365 -8.6708 21.6671 2.1103 -9.0922 -26.0842 -0.1777 11.2765 4.9137 0.9189 -6.1077 -17.0971 0.0000 0.0000 0.0000 24.4863 -17.8759 7.0861 0.0000 -0.0000 0.0000 -1.4744 -6.0721 -25.8355 -0.0168 -0.8370 2.3004 7.7322 5.3154 9.8002 0.8496 7.9678 0.4734 -4.3917 3.8112 -4.0452 -8.1451 -11.1860 -5.0422 8.5172 -14.6334 -0.4226 3.5589 -7.1942 2.1045 0.0000 -0.0000 0.0000 -77.0962 16.0130 42.1712 67.4831 -57.9948 -40.6311 -0.0000 0.0000 -13.2407 4.5426 -22.0175 -1.7061 -7.1250 0.0000 -0.0000 -15.2268 8.5103 13.2969 0.0000 -0.0000 0.0000 57.1654 23.7252 50.8838 -107.3694 58.8288 -74.9832 0.0000 -0.0000 -4.8452 -2.8099 -19.2722 0.9281 7.1250 -0.0000 -0.0000 24.2828 -47.6889 -1.7067
-1.5153 18.0465 5.9798 -6.4319 19.3885 -1.8257 0.0000 0.0000 0.0000 -8.0440 -8.5961 21.6563 2.1116 -9.0947 -26.0921 -0.1775 11.2841 4.9265 0.8994 -6.0441 -16.9125 0.0000 0.0000 0.0000 24.4785 -17.8550 7.0780 0.0000 -0.0000 0.0000 -1.4542 -6.1354 -25.7243 -0.0120 -0.7062 1.9408 7.6717 5.2193 9.7392 0.8480 7.8269 0.4918 -4.3394 3.7446 -4.0171 -8.5046 -11.4332 -4.6776 8.8485 -14.9716 -0.6399 3.7337 -7.3684 2.0617 -0.0000 -0.0000 0.0000 -77.2439 16.0799 41.8988 67.6238 -58.0209 -40.7504 -0.0000 0.0000 -13.2321 4.6090 -21.9315 -1.7247 -7.1250 0.0000 -0.0000 -15.1875 8.5884 13.2355 -0.0000 -0.0000 0.0000 57.0622 23.4678 50.5245 -107.3625 58.8297 -74.9773 0.0000 -0.0000 -4.7623 -2.8401 -19.1194 0.9309 7.1250 -0.0000 -0.0000 24.1846 -47.5538 -1.6141
-1.5191 18.0480 5.9849 -6.3774 19.3854 -1.7644 0.0000 0.0000 0.0000 -8.0716 -8.5177 21.6136 2.1174 -9.1065 -26.1290 -0.1738 11.2605 4.9728 0.8783 -5.9747 -16.7110 0.0000 0.0000 0.0000 24.4467 -17.8798 7.0381 0.0000 -0.0000 0.0000 -1.4324 -6.2152 -25.6102 -0.0062 -0.5096 1.4003 7.5369 5.1364 9.7384 0.8530 7.7037 0.4693 -4.2516 3.6828 -4.0738 -8.7229 -11.7602 -4.3745 8.9897 -15.4208 -0.7598 3.8058 -7.5986 2.0428 0.0000 0.0000 0.0000 -77.3492 16.1956 41.7503 67.8709 -58.0663 -40.9600 -0.0000 0.0000 -13.2903 4.6659 -21.8749 -1.7417 -7.1250 0.0000 -0.0000 -15.1535 8.6390 13.1878 0.0000 0.0000 0.0000 56.9001 23.1626 50.1558 -107.3937 58.8254 -75.0039 0.0000 -0.0000 -4.6602 -2.9575 -19.0379 0.9655 7.1250 -0.0000 -0.0000 24.0424 -47.4955 -1.5671
-1.5260 18.0503 5.9862 -6.4602 19.3538 -1.7040 0.0000 0.0000 0.0000 -7.9174 -8.4327 21.5070 2.1275 -9.1268 -26.1929 -0.1712 11.2798 5.0436 0.8387 -5.8417 -16.3258 0.0000 0.0000 0.0000 24.5909 -17.8630 6.9358 0.0000 -0.0000 0.0000 -1.4191 -6.2193 -25.5132 -0.0056 -0.4819 1.3243 7.5884 5.0539 9.7929 0.8400 7.6071 0.4170 -4.2934 3.6282 -4.1627 -9.2775 -12.1472 -4.0814 9.7412 -15.9483 -0.7624 3.7010 -7.8479 1.9469 -0.0000 0.0000 0.0000 -77.4128 16.2937 41.5781 68.0807 -58.1044 -41.1382 -0.0000 0.0000 -13.3696 4.5303 -21.7472 -1.6816 -7.1250 0.0000 -0.0000 -15.2399 8.7722 13.2269 -0.0000 0.0000 0.0000 56.8034 22.8760 49.7768 -107.4554 58.8168 -75.0568 0.0000 -0.0000 -4.6934 -3.1019 -19.1196 1.0169 7.1250 -0.0000 -0.0000 23.9511 -47.5895 -1.6189
-1.5334 18.0493 5.9876 -6.6893 19.1826 -1.7462 0.0000 0.0000 0.0000 -7.6022 -8.2320 21.4689 2.1398 -9.1514 -26.2702 -0.1650 11.2616 5.1435 0.8326 -5.8211 -16.2661 0.0000 0.0000 0.0000 24.8750 -17.7485 6.9269 0.0000 -0.0000 0.0000 -1.4155 -6.1767 -25.4600 -0.0071 -0.5454 1.4986 7.7696 4.9607 9.8820 0.8757 7.5137 0.4108 -4.3557 3.5759 -4.2126 -9.7291 -12.5032 -3.7692 10.1844 -16.4350 -0.9595 3.8775 -8.0940 1.9587 0.0000 0.0000 0.0000 -77.5638 16.4024 41.2591 68.2291 -58.1311 -41.2642 -0.0000 0.0000 -13.4130 4.3445 -21.6863 -1.6081 -7.1250 0.0000 -0.0000 -15.3561 8.8442 13.3129 0.0000 0.0000 0.0000 56.7118 22.7880 49.4929 -107.4207 58.8217 -75.0271 0.0000 -0.0000 -4.8740 -3.3553 -19.1598 1.1023 7.1250 -0.0000 -0.0000 23.7433 -47.6605 -1.6470
-1.5333 18.0470 5.9967 -6.8060 18.8941 -1.8360 0.0000 0.0000 0.0000 -7.4634 -8.0380 21.6307 2.1520 -9.1757 -26.3464 -0.1713 11.3210 5.0839 0.8406 -5.8484 -16.3452 0.0000 0.0000 0.0000 24.9720 -17.5603 7.0864 0.0000 0.0000 -0.0000 -1.4185 -6.1156 -25.4449 -0.0081 -0.5800 1.5937 7.8329 4.8977 9.9042 0.9208 7.4385 0.4624 -4.3349 3.5408 -4.1781 -10.1897 -12.8704 -3.3875 10.6413 -16.9412 -1.2229 4.0629 -8.3528 1.9481 -0.0000 0.0000 0.0000 -77.7409 16.5283 40.9449 68.3232 -58.1479 -41.3440 -0.0000 0.0000 -13.4661 4.3325 -21.8685 -1.6164 -7.1250 0.0000 -0.0000 -15.3594 8.6693 13.3715 -0.0000 0.0000 0.0000 56.6343 22.7817 49.2689 -107.3808 58.8272 -74.9929 0.0000 -0.0000 -5.0470 -3.5931 -19.1682 1.1812 7.1250 -0.0000 -0.0000 23.5342 -47.7005 -1.6552
-1.5305 18.0473 6.0071 -6.8143 18.6614 -1.8176 0.0000 0.0000 0.0000 -7.4540 -7.9619 21.7390 2.1610 -9.1936 -26.4030 -0.1891 11.5078 4.9377 0.8114 -5.7484 -16.0560 0.0000 0.0000 0.0000 24.9583 -17.3833 7.1663 0.0000 -0.0000 0.0000 -1.4220 -6.0407 -25.4261 -0.0103 -0.6559 1.8025 7.8154 4.8589 9.8264 0.9185 7.3767 0.4796 -4.3122 3.5137 -4.1262 -10.6754 -13.2991 -2.9011 11.1303 -17.5429 -1.4916 4.2586 -8.6626 1.9391 0.0000 -0.0000 0.0000 -77.8171 16.6230 40.7743 68.3533 -58.1532 -41.3697 -0.0000 0.0000 -13.5080 4.5639 -21.9399 -1.7083 -7.1250 0.0000 -0.0000 -15.2152 8.5837 13.2630 0.0000 -0.0000 0.0000 56.6139 22.6734 48.9894 -107.4700 58.8148 -75.0692 0.0000 -0.0000 -5.0746 -3.5769 -19.2577 1.1811 7.1250 -0.0000 -0.0000 23.5899 -47.7803 -1.7084
-1.5298 18.0475 6.0161 -6.8192 18.4683 -1.7517 0.0000 0.0000 0.0000 -7.4261 -7.8366 21.7275 2.1651 -9.2018 -26.4287 -0.1971 11.6004 4.8832 0.7851 -5.6565 -15.7909 0.0000 0.0000 0.0000 24.9700 -17.2229 7.1763 0.0000 0.0000 -0.0000 -1.4149 -6.0262 -25.3635 -0.0112 -0.6842 1.8802 7.8047 4.8140 9.7301 0.8788 7.3052 0.4722 -4.3306 3.4802 -4.0851 -11.0445 -13.7544 -2.4561 11.5579 -18.1864 -1.6995 4.4109 -8.9935 1.9487 -0.0000 0.0000 0.0000 -77.8242 16.6881 40.6360 68.3749 -58.1571 -41.3880 -0.0000 0.0000 -13.5281 4.7524 -21.9124 -1.7770 -7.1250 0.0000 -0.0000 -15.0994 8.5965 13.1503 -0.0000 0.0000 0.0000 56.6546 22.5378 48.6834 -107.5486 58.8038 -75.1365 0.0000 -0.0000 -4.9784 -3.4519 -19.2507 1.1393 7.1250 -0.0000 -0.0000 23.6987 -47.7568 -1.7027
-1.5284 18.0475 6.0261 -6.8203 18.2508 -1.7226 0.0000 0.0000 0.0000 -7.4058 -7.6290 21.7303 2.1658 -9.2031 -26.4329 -0.2002 11.6124 4.8364 0.7936 -5.6864 -15.8771 0.0000 0.0000 0.0000 24.9722 -17.0565 7.2277 0.0000 -0.0000 0.0000 -1.3932 -6.1225 -25.2580 -0.0064 -0.5150 1.4152 7.7763 4.7473 9.6691 0.8577 7.2064 0.4795 -4.3206 3.4334 -4.0565 -11.4131 -14.1860 -2.0250 11.9965 -18.7964 -1.9545 4.5681 -9.3084 1.9490 0.0000 0.0000 0.0000 -77.9001 16.7910 40.4177 68.4584 -58.1719 -41.4590 -0.0000 0.0000 -13.5571 4.5754 -21.8389 -1.7052 -7.1250 0.0000 -0.0000 -15.2101 8.6804 13.2279 0.0000 0.0000 0.0000 56.6840 22.5146 48.4619 -107.5054 58.8099 -75.0995 0.0000 -0.0000 -4.9136 -3.4955 -19.1962 1.1506 7.1250 -0.0000 -0.0000 23.6346 -47.7129 -1.6707
-1.5265 18.0475 6.0363 -6.8251 18.0162 -1.7040 0.0000 0.0000 0.0000 -7.3851 -7.4349 21.7608 2.1649 -9.2013 -26.4272 -0.2098 11.6703 4.7129 0.7923 -5.6819 -15.8641 0.0000 0.0000 0.0000 24.9726 -16.8780 7.2946 0.0000 -0.0000 0.0000 -1.3732 -6.2243 -25.1687 -0.0028 -0.3447 0.9470 7.7326 4.6734 9.6338 0.8617 7.1003 0.4808 -4.2789 3.3819 -4.0544 -11.8463 -14.5903 -1.5416 12.5099 -19.3731 -2.2811 4.7623 -9.6092 1.9352 0.0000 0.0000 0.0000 -78.0000 16.9500 40.2164 68.6054 -58.1978 -41.5839 -0.0000 0.0000 -13.5503 4.3711 -21.7159 -1.6200 -7.1250 0.0000 -0.0000 -15.3390 8.8138 13.3065 0.0000 0.0000 0.0000 56.7197 22.5475 48.3154 -107.4513 58.8174 -75.0533 0.0000 -0.0000 -4.8766 -3.6625 -19.3852 1.2171 7.1250 -0.0000 -0.0000 23.5721 -47.9087 -1.7853
-1.5271 18.0467 6.0452 -6.8305 17.7524 -1.6887 0.0000 0.0000 0.0000 -7.3502 -7.2358 21.8042 2.1645 -9.2007 -26.4253 -0.2190 11.7260 4.5942 0.7708 -5.6062 -15.6460 0.0000 0.0000 0.0000 24.9824 -16.6781 7.3775 0.0000 0.0000 -0.0000 -1.3678 -6.2558 -25.1473 -0.0022 -0.3028 0.8320 7.6587 4.6131 9.6420 0.8609 7.0139 0.4673 -4.2331 3.3383 -4.0924 -12.2992 -14.9810 -1.0922 13.0744 -19.9412 -2.4985 4.9643 -9.9047 1.9715 -0.0000 -0.0000 0.0000 -78.0662 17.1065 40.0701 68.7063 -58.2154 -41.6696 -0.0000 0.0000 -13.4770 4.5087 -21.7660 -1.6749 -7.1250 0.0000 -0.0000 -15.2528 8.7556 13.2442 -0.0000 -0.0000 0.0000 56.7904 22.5366 48.1431 -107.4476 58.8179 -75.0501 0.0000 -0.0000 -4.8666 -3.8388 -19.5986 1.2894 7.1250 -0.0000 -0.0000 23.5129 -48.1285 -1.9140
-1.5296 18.0451 6.0528 -6.8041 17.4822 -1.6694 0.0000 0.0000 0.0000 -7.3386 -7.0085 21.8462 2.1660 -9.2036 -26.4342 -0.2235 11.7498 4.5322 0.7644 -5.5832 -15.5798 0.0000 0.0000 0.0000 24.9638 -16.4743 7.4664 0.0000 -0.0000 0.0000 -1.3722 -6.2088 -25.1514 -0.0034 -0.3787 1.0406 7.5342 4.5583 9.6685 0.8530 6.9300 0.4594 -4.1686 3.2967 -4.1394 -12.7479 -15.3824 -0.7129 13.6121 -20.5269 -2.6245 5.1438 -10.2068 2.0505 -0.0000 -0.0000 0.0000 -78.1634 17.2124 39.8918 68.7378 -58.2209 -41.6964 -0.0000 0.0000 -13.4267 4.5489 -21.7610 -1.6895 -7.1250 0.0000 -0.0000 -15.2281 8.7575 13.2205 -0.0000 -0.0000 0.0000 56.8418 22.5342 47.9337 -107.4489 58.8177 -75.0512 0.0000 -0.0000 -4.9481 -4.0298 -19.5780 1.3523 7.1250 -0.0000 -0.0000 23.3313 -48.1361 -1.9022
-1.5299 18.0435 6.0603 -6.7814 17.2092 -1.6463 0.0000 0.0000 0.0000 -7.3292 -6.7637 21.8775 2.1682 -9.2080 -26.4482 -0.2281 11.7833 4.4780 0.7563 -5.5541 -15.4960 0.0000 0.0000 0.0000 24.9371 -16.2625 7.5526 0.0000 -0.0000 0.0000 -1.3672 -6.1656 -25.0867 -0.0048 -0.4481 1.2312 7.4362 4.4911 9.6808 0.8380 6.8312 0.4454 -4.1233 3.2472 -4.1821 -13.0977 -15.7572 -0.3161 14.0597 -21.0754 -2.8026 5.2914 -10.4930 2.0915 -0.0000 -0.0000 0.0000 -78.2437 17.3447 39.6884 68.8380 -58.2383 -41.7815 -0.0000 0.0000 -13.4143 4.2721 -21.6098 -1.5759 -7.1250 0.0000 -0.0000 -15.4026 8.9232 13.3312 -0.0000 -0.0000 0.0000 56.8910 22.5581 47.7744 -107.4867 58.8125 -75.0836 0.0000 -0.0000 -5.0424 -4.0996 -19.4795 1.3692 7.1250 -0.0000 -0.0000 23.2227 -48.0554 -1.8440
-1.5286 18.0435 6.0675 -6.7494 16.9562 -1.6018 0.0000 0.0000 0.0000 -7.3426 -6.5784 21.9016 2.1719 -9.2153 -26.4711 -0.2387 11.8850 4.3857 0.7648 -5.5848 -15.5843 0.0000 0.0000 0.0000 24.8992 -16.0577 7.6123 0.0000 0.0000 -0.0000 -1.3576 -6.1624 -25.0115 -0.0052 -0.4652 1.2782 7.3002 4.4115 9.6902 0.8351 6.7133 0.4105 -4.0435 3.1874 -4.2532 -13.3450 -16.0356 0.0981 14.4372 -21.4901 -3.0400 5.4248 -10.7157 2.0802 -0.0000 0.0000 0.0000 -78.3029 17.5070 39.5317 68.9524 -58.2581 -41.8789 -0.0000 0.0000 -13.3451 4.1278 -21.6150 -1.5228 -7.1250 0.0000 -0.0000 -15.4916 8.9283 13.4129 -0.0000 0.0000 0.0000 56.9344 22.5574 47.6578 -107.6146 58.7945 -75.1929 0.0000 -0.0000 -5.0738 -4.0429 -19.3874 1.3440 7.1250 -0.0000 -0.0000 23.2313 -47.9630 -1.7893
